<mxfile host="65bd71144e">
    <diagram id="KCi7hEZ0cHEppxMvA60A" name="Page-1">
        <mxGraphModel dx="2947" dy="1155" grid="1" gridSize="10" guides="1" tooltips="1" connect="1" arrows="1" fold="1" page="1" pageScale="1" pageWidth="827" pageHeight="1169" math="0" shadow="0">
            <root>
                <mxCell id="0"/>
                <mxCell id="1" parent="0"/>
                <mxCell id="28" value="Practice Table for DBbrowser" style="shape=table;startSize=30;container=1;collapsible=0;childLayout=tableLayout;strokeColor=default;fontSize=16;" parent="1" vertex="1">
                    <mxGeometry x="-795" y="230" width="1755" height="274" as="geometry"/>
                </mxCell>
                <mxCell id="105" value="" style="shape=tableRow;horizontal=0;startSize=0;swimlaneHead=0;swimlaneBody=0;strokeColor=inherit;top=0;left=0;bottom=0;right=0;collapsible=0;dropTarget=0;fillColor=none;points=[[0,0.5],[1,0.5]];portConstraint=eastwest;fontSize=16;" parent="28" vertex="1">
                    <mxGeometry y="30" width="1755" height="35" as="geometry"/>
                </mxCell>
                <mxCell id="158" value="Field Name" style="shape=partialRectangle;html=1;whiteSpace=wrap;connectable=0;strokeColor=inherit;overflow=hidden;fillColor=none;top=0;left=0;bottom=0;right=0;pointerEvents=1;fontSize=16;" parent="105" vertex="1">
                    <mxGeometry width="181" height="35" as="geometry">
                        <mxRectangle width="181" height="35" as="alternateBounds"/>
                    </mxGeometry>
                </mxCell>
                <mxCell id="151" value="PK/FK" style="shape=partialRectangle;html=1;whiteSpace=wrap;connectable=0;strokeColor=inherit;overflow=hidden;fillColor=none;top=0;left=0;bottom=0;right=0;pointerEvents=1;fontSize=16;" parent="105" vertex="1">
                    <mxGeometry x="181" width="69" height="35" as="geometry">
                        <mxRectangle width="69" height="35" as="alternateBounds"/>
                    </mxGeometry>
                </mxCell>
                <mxCell id="144" value="Data Type" style="shape=partialRectangle;html=1;whiteSpace=wrap;connectable=0;strokeColor=inherit;overflow=hidden;fillColor=none;top=0;left=0;bottom=0;right=0;pointerEvents=1;fontSize=16;" parent="105" vertex="1">
                    <mxGeometry x="250" width="170" height="35" as="geometry">
                        <mxRectangle width="170" height="35" as="alternateBounds"/>
                    </mxGeometry>
                </mxCell>
                <mxCell id="106" value="Field Size" style="shape=partialRectangle;html=1;whiteSpace=wrap;connectable=0;strokeColor=inherit;overflow=hidden;fillColor=none;top=0;left=0;bottom=0;right=0;pointerEvents=1;fontSize=16;" parent="105" vertex="1">
                    <mxGeometry x="420" width="80" height="35" as="geometry">
                        <mxRectangle width="80" height="35" as="alternateBounds"/>
                    </mxGeometry>
                </mxCell>
                <mxCell id="107" value="Data Constrains" style="shape=partialRectangle;html=1;whiteSpace=wrap;connectable=0;strokeColor=inherit;overflow=hidden;fillColor=none;top=0;left=0;bottom=0;right=0;pointerEvents=1;fontSize=16;" parent="105" vertex="1">
                    <mxGeometry x="500" width="275" height="35" as="geometry">
                        <mxRectangle width="275" height="35" as="alternateBounds"/>
                    </mxGeometry>
                </mxCell>
                <mxCell id="165" value="Description" style="shape=partialRectangle;html=1;whiteSpace=wrap;connectable=0;strokeColor=inherit;overflow=hidden;fillColor=none;top=0;left=0;bottom=0;right=0;pointerEvents=1;fontSize=16;" parent="105" vertex="1">
                    <mxGeometry x="775" width="320" height="35" as="geometry">
                        <mxRectangle width="320" height="35" as="alternateBounds"/>
                    </mxGeometry>
                </mxCell>
                <mxCell id="172" value="Example" style="shape=partialRectangle;html=1;whiteSpace=wrap;connectable=0;strokeColor=inherit;overflow=hidden;fillColor=none;top=0;left=0;bottom=0;right=0;pointerEvents=1;fontSize=16;" parent="105" vertex="1">
                    <mxGeometry x="1095" width="120" height="35" as="geometry">
                        <mxRectangle width="120" height="35" as="alternateBounds"/>
                    </mxGeometry>
                </mxCell>
                <mxCell id="179" value="Validation" style="shape=partialRectangle;html=1;whiteSpace=wrap;connectable=0;strokeColor=inherit;overflow=hidden;fillColor=none;top=0;left=0;bottom=0;right=0;pointerEvents=1;fontSize=16;" parent="105" vertex="1">
                    <mxGeometry x="1215" width="540" height="35" as="geometry">
                        <mxRectangle width="540" height="35" as="alternateBounds"/>
                    </mxGeometry>
                </mxCell>
                <mxCell id="101" value="" style="shape=tableRow;horizontal=0;startSize=0;swimlaneHead=0;swimlaneBody=0;strokeColor=inherit;top=0;left=0;bottom=0;right=0;collapsible=0;dropTarget=0;fillColor=none;points=[[0,0.5],[1,0.5]];portConstraint=eastwest;fontSize=16;" parent="28" vertex="1">
                    <mxGeometry y="65" width="1755" height="34" as="geometry"/>
                </mxCell>
                <mxCell id="159" value="UserID" style="shape=partialRectangle;html=1;whiteSpace=wrap;connectable=0;strokeColor=inherit;overflow=hidden;fillColor=none;top=0;left=0;bottom=0;right=0;pointerEvents=1;fontSize=16;" parent="101" vertex="1">
                    <mxGeometry width="181" height="34" as="geometry">
                        <mxRectangle width="181" height="34" as="alternateBounds"/>
                    </mxGeometry>
                </mxCell>
                <mxCell id="152" value="PK" style="shape=partialRectangle;html=1;whiteSpace=wrap;connectable=0;strokeColor=inherit;overflow=hidden;fillColor=none;top=0;left=0;bottom=0;right=0;pointerEvents=1;fontSize=16;" parent="101" vertex="1">
                    <mxGeometry x="181" width="69" height="34" as="geometry">
                        <mxRectangle width="69" height="34" as="alternateBounds"/>
                    </mxGeometry>
                </mxCell>
                <mxCell id="145" value="Auto Number" style="shape=partialRectangle;html=1;whiteSpace=wrap;connectable=0;strokeColor=inherit;overflow=hidden;fillColor=none;top=0;left=0;bottom=0;right=0;pointerEvents=1;fontSize=16;" parent="101" vertex="1">
                    <mxGeometry x="250" width="170" height="34" as="geometry">
                        <mxRectangle width="170" height="34" as="alternateBounds"/>
                    </mxGeometry>
                </mxCell>
                <mxCell id="102" value="4" style="shape=partialRectangle;html=1;whiteSpace=wrap;connectable=0;strokeColor=inherit;overflow=hidden;fillColor=none;top=0;left=0;bottom=0;right=0;pointerEvents=1;fontSize=16;" parent="101" vertex="1">
                    <mxGeometry x="420" width="80" height="34" as="geometry">
                        <mxRectangle width="80" height="34" as="alternateBounds"/>
                    </mxGeometry>
                </mxCell>
                <mxCell id="103" value="Unique, Auto increment, Not Null" style="shape=partialRectangle;html=1;whiteSpace=wrap;connectable=0;strokeColor=inherit;overflow=hidden;fillColor=none;top=0;left=0;bottom=0;right=0;pointerEvents=1;fontSize=16;" parent="101" vertex="1">
                    <mxGeometry x="500" width="275" height="34" as="geometry">
                        <mxRectangle width="275" height="34" as="alternateBounds"/>
                    </mxGeometry>
                </mxCell>
                <mxCell id="166" value="The user Account ID" style="shape=partialRectangle;html=1;whiteSpace=wrap;connectable=0;strokeColor=inherit;overflow=hidden;fillColor=none;top=0;left=0;bottom=0;right=0;pointerEvents=1;fontSize=16;" parent="101" vertex="1">
                    <mxGeometry x="775" width="320" height="34" as="geometry">
                        <mxRectangle width="320" height="34" as="alternateBounds"/>
                    </mxGeometry>
                </mxCell>
                <mxCell id="173" value="1234" style="shape=partialRectangle;html=1;whiteSpace=wrap;connectable=0;strokeColor=inherit;overflow=hidden;fillColor=none;top=0;left=0;bottom=0;right=0;pointerEvents=1;fontSize=16;" parent="101" vertex="1">
                    <mxGeometry x="1095" width="120" height="34" as="geometry">
                        <mxRectangle width="120" height="34" as="alternateBounds"/>
                    </mxGeometry>
                </mxCell>
                <mxCell id="180" value="Check if User ID already Exsists" style="shape=partialRectangle;html=1;whiteSpace=wrap;connectable=0;strokeColor=inherit;overflow=hidden;fillColor=none;top=0;left=0;bottom=0;right=0;pointerEvents=1;fontSize=16;" parent="101" vertex="1">
                    <mxGeometry x="1215" width="540" height="34" as="geometry">
                        <mxRectangle width="540" height="34" as="alternateBounds"/>
                    </mxGeometry>
                </mxCell>
                <mxCell id="194" style="shape=tableRow;horizontal=0;startSize=0;swimlaneHead=0;swimlaneBody=0;strokeColor=inherit;top=0;left=0;bottom=0;right=0;collapsible=0;dropTarget=0;fillColor=none;points=[[0,0.5],[1,0.5]];portConstraint=eastwest;fontSize=16;" parent="28" vertex="1">
                    <mxGeometry y="99" width="1755" height="34" as="geometry"/>
                </mxCell>
                <mxCell id="195" value="User_firstname" style="shape=partialRectangle;html=1;whiteSpace=wrap;connectable=0;strokeColor=inherit;overflow=hidden;fillColor=none;top=0;left=0;bottom=0;right=0;pointerEvents=1;fontSize=16;" parent="194" vertex="1">
                    <mxGeometry width="181" height="34" as="geometry">
                        <mxRectangle width="181" height="34" as="alternateBounds"/>
                    </mxGeometry>
                </mxCell>
                <mxCell id="196" style="shape=partialRectangle;html=1;whiteSpace=wrap;connectable=0;strokeColor=inherit;overflow=hidden;fillColor=none;top=0;left=0;bottom=0;right=0;pointerEvents=1;fontSize=16;" parent="194" vertex="1">
                    <mxGeometry x="181" width="69" height="34" as="geometry">
                        <mxRectangle width="69" height="34" as="alternateBounds"/>
                    </mxGeometry>
                </mxCell>
                <mxCell id="197" value="String" style="shape=partialRectangle;html=1;whiteSpace=wrap;connectable=0;strokeColor=inherit;overflow=hidden;fillColor=none;top=0;left=0;bottom=0;right=0;pointerEvents=1;fontSize=16;" parent="194" vertex="1">
                    <mxGeometry x="250" width="170" height="34" as="geometry">
                        <mxRectangle width="170" height="34" as="alternateBounds"/>
                    </mxGeometry>
                </mxCell>
                <mxCell id="198" value="20" style="shape=partialRectangle;html=1;whiteSpace=wrap;connectable=0;strokeColor=inherit;overflow=hidden;fillColor=none;top=0;left=0;bottom=0;right=0;pointerEvents=1;fontSize=16;" parent="194" vertex="1">
                    <mxGeometry x="420" width="80" height="34" as="geometry">
                        <mxRectangle width="80" height="34" as="alternateBounds"/>
                    </mxGeometry>
                </mxCell>
                <mxCell id="199" value="Not Null" style="shape=partialRectangle;html=1;whiteSpace=wrap;connectable=0;strokeColor=inherit;overflow=hidden;fillColor=none;top=0;left=0;bottom=0;right=0;pointerEvents=1;fontSize=16;" parent="194" vertex="1">
                    <mxGeometry x="500" width="275" height="34" as="geometry">
                        <mxRectangle width="275" height="34" as="alternateBounds"/>
                    </mxGeometry>
                </mxCell>
                <mxCell id="200" value="The User&#39;s First Name" style="shape=partialRectangle;html=1;whiteSpace=wrap;connectable=0;strokeColor=inherit;overflow=hidden;fillColor=none;top=0;left=0;bottom=0;right=0;pointerEvents=1;fontSize=16;" parent="194" vertex="1">
                    <mxGeometry x="775" width="320" height="34" as="geometry">
                        <mxRectangle width="320" height="34" as="alternateBounds"/>
                    </mxGeometry>
                </mxCell>
                <mxCell id="201" value="Joe" style="shape=partialRectangle;html=1;whiteSpace=wrap;connectable=0;strokeColor=inherit;overflow=hidden;fillColor=none;top=0;left=0;bottom=0;right=0;pointerEvents=1;fontSize=16;" parent="194" vertex="1">
                    <mxGeometry x="1095" width="120" height="34" as="geometry">
                        <mxRectangle width="120" height="34" as="alternateBounds"/>
                    </mxGeometry>
                </mxCell>
                <mxCell id="202" value="Cannot be null or longer than 20 Characters and can only contain letters" style="shape=partialRectangle;html=1;whiteSpace=wrap;connectable=0;strokeColor=inherit;overflow=hidden;fillColor=none;top=0;left=0;bottom=0;right=0;pointerEvents=1;fontSize=16;" parent="194" vertex="1">
                    <mxGeometry x="1215" width="540" height="34" as="geometry">
                        <mxRectangle width="540" height="34" as="alternateBounds"/>
                    </mxGeometry>
                </mxCell>
                <mxCell id="185" style="shape=tableRow;horizontal=0;startSize=0;swimlaneHead=0;swimlaneBody=0;strokeColor=inherit;top=0;left=0;bottom=0;right=0;collapsible=0;dropTarget=0;fillColor=none;points=[[0,0.5],[1,0.5]];portConstraint=eastwest;fontSize=16;" parent="28" vertex="1">
                    <mxGeometry y="133" width="1755" height="37" as="geometry"/>
                </mxCell>
                <mxCell id="186" value="User_Surname" style="shape=partialRectangle;html=1;whiteSpace=wrap;connectable=0;strokeColor=inherit;overflow=hidden;fillColor=none;top=0;left=0;bottom=0;right=0;pointerEvents=1;fontSize=16;" parent="185" vertex="1">
                    <mxGeometry width="181" height="37" as="geometry">
                        <mxRectangle width="181" height="37" as="alternateBounds"/>
                    </mxGeometry>
                </mxCell>
                <mxCell id="187" style="shape=partialRectangle;html=1;whiteSpace=wrap;connectable=0;strokeColor=inherit;overflow=hidden;fillColor=none;top=0;left=0;bottom=0;right=0;pointerEvents=1;fontSize=16;" parent="185" vertex="1">
                    <mxGeometry x="181" width="69" height="37" as="geometry">
                        <mxRectangle width="69" height="37" as="alternateBounds"/>
                    </mxGeometry>
                </mxCell>
                <mxCell id="188" value="String" style="shape=partialRectangle;html=1;whiteSpace=wrap;connectable=0;strokeColor=inherit;overflow=hidden;fillColor=none;top=0;left=0;bottom=0;right=0;pointerEvents=1;fontSize=16;" parent="185" vertex="1">
                    <mxGeometry x="250" width="170" height="37" as="geometry">
                        <mxRectangle width="170" height="37" as="alternateBounds"/>
                    </mxGeometry>
                </mxCell>
                <mxCell id="189" value="20" style="shape=partialRectangle;html=1;whiteSpace=wrap;connectable=0;strokeColor=inherit;overflow=hidden;fillColor=none;top=0;left=0;bottom=0;right=0;pointerEvents=1;fontSize=16;" parent="185" vertex="1">
                    <mxGeometry x="420" width="80" height="37" as="geometry">
                        <mxRectangle width="80" height="37" as="alternateBounds"/>
                    </mxGeometry>
                </mxCell>
                <mxCell id="190" value="Not Null" style="shape=partialRectangle;html=1;whiteSpace=wrap;connectable=0;strokeColor=inherit;overflow=hidden;fillColor=none;top=0;left=0;bottom=0;right=0;pointerEvents=1;fontSize=16;" parent="185" vertex="1">
                    <mxGeometry x="500" width="275" height="37" as="geometry">
                        <mxRectangle width="275" height="37" as="alternateBounds"/>
                    </mxGeometry>
                </mxCell>
                <mxCell id="191" value="The User&#39;s Surname" style="shape=partialRectangle;html=1;whiteSpace=wrap;connectable=0;strokeColor=inherit;overflow=hidden;fillColor=none;top=0;left=0;bottom=0;right=0;pointerEvents=1;fontSize=16;" parent="185" vertex="1">
                    <mxGeometry x="775" width="320" height="37" as="geometry">
                        <mxRectangle width="320" height="37" as="alternateBounds"/>
                    </mxGeometry>
                </mxCell>
                <mxCell id="192" value="Jones" style="shape=partialRectangle;html=1;whiteSpace=wrap;connectable=0;strokeColor=inherit;overflow=hidden;fillColor=none;top=0;left=0;bottom=0;right=0;pointerEvents=1;fontSize=16;" parent="185" vertex="1">
                    <mxGeometry x="1095" width="120" height="37" as="geometry">
                        <mxRectangle width="120" height="37" as="alternateBounds"/>
                    </mxGeometry>
                </mxCell>
                <mxCell id="193" value="&lt;span style=&quot;color: rgb(0, 0, 0); font-family: Helvetica; font-size: 16px; font-style: normal; font-variant-ligatures: normal; font-variant-caps: normal; font-weight: 400; letter-spacing: normal; orphans: 2; text-align: center; text-indent: 0px; text-transform: none; widows: 2; word-spacing: 0px; -webkit-text-stroke-width: 0px; white-space: normal; background-color: rgb(251, 251, 251); text-decoration-thickness: initial; text-decoration-style: initial; text-decoration-color: initial; float: none; display: inline !important;&quot;&gt;Cannot be null or longer than 20 Characters and can only contain letters&lt;/span&gt;" style="shape=partialRectangle;html=1;whiteSpace=wrap;connectable=0;strokeColor=inherit;overflow=hidden;fillColor=none;top=0;left=0;bottom=0;right=0;pointerEvents=1;fontSize=16;" parent="185" vertex="1">
                    <mxGeometry x="1215" width="540" height="37" as="geometry">
                        <mxRectangle width="540" height="37" as="alternateBounds"/>
                    </mxGeometry>
                </mxCell>
                <mxCell id="29" value="" style="shape=tableRow;horizontal=0;startSize=0;swimlaneHead=0;swimlaneBody=0;strokeColor=inherit;top=0;left=0;bottom=0;right=0;collapsible=0;dropTarget=0;fillColor=none;points=[[0,0.5],[1,0.5]];portConstraint=eastwest;fontSize=16;" parent="28" vertex="1">
                    <mxGeometry y="170" width="1755" height="35" as="geometry"/>
                </mxCell>
                <mxCell id="160" value="User_email" style="shape=partialRectangle;html=1;whiteSpace=wrap;connectable=0;strokeColor=inherit;overflow=hidden;fillColor=none;top=0;left=0;bottom=0;right=0;pointerEvents=1;fontSize=16;" parent="29" vertex="1">
                    <mxGeometry width="181" height="35" as="geometry">
                        <mxRectangle width="181" height="35" as="alternateBounds"/>
                    </mxGeometry>
                </mxCell>
                <mxCell id="153" style="shape=partialRectangle;html=1;whiteSpace=wrap;connectable=0;strokeColor=inherit;overflow=hidden;fillColor=none;top=0;left=0;bottom=0;right=0;pointerEvents=1;fontSize=16;" parent="29" vertex="1">
                    <mxGeometry x="181" width="69" height="35" as="geometry">
                        <mxRectangle width="69" height="35" as="alternateBounds"/>
                    </mxGeometry>
                </mxCell>
                <mxCell id="146" value="String" style="shape=partialRectangle;html=1;whiteSpace=wrap;connectable=0;strokeColor=inherit;overflow=hidden;fillColor=none;top=0;left=0;bottom=0;right=0;pointerEvents=1;fontSize=16;" parent="29" vertex="1">
                    <mxGeometry x="250" width="170" height="35" as="geometry">
                        <mxRectangle width="170" height="35" as="alternateBounds"/>
                    </mxGeometry>
                </mxCell>
                <mxCell id="30" value="40" style="shape=partialRectangle;html=1;whiteSpace=wrap;connectable=0;strokeColor=inherit;overflow=hidden;fillColor=none;top=0;left=0;bottom=0;right=0;pointerEvents=1;fontSize=16;" parent="29" vertex="1">
                    <mxGeometry x="420" width="80" height="35" as="geometry">
                        <mxRectangle width="80" height="35" as="alternateBounds"/>
                    </mxGeometry>
                </mxCell>
                <mxCell id="31" value="Unique, Not Null" style="shape=partialRectangle;html=1;whiteSpace=wrap;connectable=0;strokeColor=inherit;overflow=hidden;fillColor=none;top=0;left=0;bottom=0;right=0;pointerEvents=1;fontSize=16;" parent="29" vertex="1">
                    <mxGeometry x="500" width="275" height="35" as="geometry">
                        <mxRectangle width="275" height="35" as="alternateBounds"/>
                    </mxGeometry>
                </mxCell>
                <mxCell id="167" value="The User&#39;s Email- Should be unique" style="shape=partialRectangle;html=1;whiteSpace=wrap;connectable=0;strokeColor=inherit;overflow=hidden;fillColor=none;top=0;left=0;bottom=0;right=0;pointerEvents=1;fontSize=16;" parent="29" vertex="1">
                    <mxGeometry x="775" width="320" height="35" as="geometry">
                        <mxRectangle width="320" height="35" as="alternateBounds"/>
                    </mxGeometry>
                </mxCell>
                <mxCell id="174" value="Bob@gmail.com" style="shape=partialRectangle;html=1;whiteSpace=wrap;connectable=0;strokeColor=inherit;overflow=hidden;fillColor=none;top=0;left=0;bottom=0;right=0;pointerEvents=1;fontSize=16;" parent="29" vertex="1">
                    <mxGeometry x="1095" width="120" height="35" as="geometry">
                        <mxRectangle width="120" height="35" as="alternateBounds"/>
                    </mxGeometry>
                </mxCell>
                <mxCell id="181" value="Check that the email meets a@b.com formatting" style="shape=partialRectangle;html=1;whiteSpace=wrap;connectable=0;strokeColor=inherit;overflow=hidden;fillColor=none;top=0;left=0;bottom=0;right=0;pointerEvents=1;fontSize=16;" parent="29" vertex="1">
                    <mxGeometry x="1215" width="540" height="35" as="geometry">
                        <mxRectangle width="540" height="35" as="alternateBounds"/>
                    </mxGeometry>
                </mxCell>
                <mxCell id="37" value="" style="shape=tableRow;horizontal=0;startSize=0;swimlaneHead=0;swimlaneBody=0;strokeColor=inherit;top=0;left=0;bottom=0;right=0;collapsible=0;dropTarget=0;fillColor=none;points=[[0,0.5],[1,0.5]];portConstraint=eastwest;fontSize=16;" parent="28" vertex="1">
                    <mxGeometry y="205" width="1755" height="34" as="geometry"/>
                </mxCell>
                <mxCell id="161" value="User_Phone" style="shape=partialRectangle;html=1;whiteSpace=wrap;connectable=0;strokeColor=inherit;overflow=hidden;fillColor=none;top=0;left=0;bottom=0;right=0;pointerEvents=1;fontSize=16;" parent="37" vertex="1">
                    <mxGeometry width="181" height="34" as="geometry">
                        <mxRectangle width="181" height="34" as="alternateBounds"/>
                    </mxGeometry>
                </mxCell>
                <mxCell id="154" style="shape=partialRectangle;html=1;whiteSpace=wrap;connectable=0;strokeColor=inherit;overflow=hidden;fillColor=none;top=0;left=0;bottom=0;right=0;pointerEvents=1;fontSize=16;" parent="37" vertex="1">
                    <mxGeometry x="181" width="69" height="34" as="geometry">
                        <mxRectangle width="69" height="34" as="alternateBounds"/>
                    </mxGeometry>
                </mxCell>
                <mxCell id="147" value="String" style="shape=partialRectangle;html=1;whiteSpace=wrap;connectable=0;strokeColor=inherit;overflow=hidden;fillColor=none;top=0;left=0;bottom=0;right=0;pointerEvents=1;fontSize=16;" parent="37" vertex="1">
                    <mxGeometry x="250" width="170" height="34" as="geometry">
                        <mxRectangle width="170" height="34" as="alternateBounds"/>
                    </mxGeometry>
                </mxCell>
                <mxCell id="38" value="11" style="shape=partialRectangle;html=1;whiteSpace=wrap;connectable=0;strokeColor=inherit;overflow=hidden;fillColor=none;top=0;left=0;bottom=0;right=0;pointerEvents=1;fontSize=16;" parent="37" vertex="1">
                    <mxGeometry x="420" width="80" height="34" as="geometry">
                        <mxRectangle width="80" height="34" as="alternateBounds"/>
                    </mxGeometry>
                </mxCell>
                <mxCell id="39" value="Unique, Not Null" style="shape=partialRectangle;html=1;whiteSpace=wrap;connectable=0;strokeColor=inherit;overflow=hidden;fillColor=none;top=0;left=0;bottom=0;right=0;pointerEvents=1;fontSize=16;" parent="37" vertex="1">
                    <mxGeometry x="500" width="275" height="34" as="geometry">
                        <mxRectangle width="275" height="34" as="alternateBounds"/>
                    </mxGeometry>
                </mxCell>
                <mxCell id="168" value="11 Digit Phone Number" style="shape=partialRectangle;html=1;whiteSpace=wrap;connectable=0;strokeColor=inherit;overflow=hidden;fillColor=none;top=0;left=0;bottom=0;right=0;pointerEvents=1;fontSize=16;" parent="37" vertex="1">
                    <mxGeometry x="775" width="320" height="34" as="geometry">
                        <mxRectangle width="320" height="34" as="alternateBounds"/>
                    </mxGeometry>
                </mxCell>
                <mxCell id="175" value="01123456789" style="shape=partialRectangle;html=1;whiteSpace=wrap;connectable=0;strokeColor=inherit;overflow=hidden;fillColor=none;top=0;left=0;bottom=0;right=0;pointerEvents=1;fontSize=16;" parent="37" vertex="1">
                    <mxGeometry x="1095" width="120" height="34" as="geometry">
                        <mxRectangle width="120" height="34" as="alternateBounds"/>
                    </mxGeometry>
                </mxCell>
                <mxCell id="182" value="Check that it meets 11 digit format" style="shape=partialRectangle;html=1;whiteSpace=wrap;connectable=0;strokeColor=inherit;overflow=hidden;fillColor=none;top=0;left=0;bottom=0;right=0;pointerEvents=1;fontSize=16;" parent="37" vertex="1">
                    <mxGeometry x="1215" width="540" height="34" as="geometry">
                        <mxRectangle width="540" height="34" as="alternateBounds"/>
                    </mxGeometry>
                </mxCell>
                <mxCell id="89" value="" style="shape=tableRow;horizontal=0;startSize=0;swimlaneHead=0;swimlaneBody=0;strokeColor=inherit;top=0;left=0;bottom=0;right=0;collapsible=0;dropTarget=0;fillColor=none;points=[[0,0.5],[1,0.5]];portConstraint=eastwest;fontSize=16;" parent="28" vertex="1">
                    <mxGeometry y="239" width="1755" height="35" as="geometry"/>
                </mxCell>
                <mxCell id="162" value="User_Password" style="shape=partialRectangle;html=1;whiteSpace=wrap;connectable=0;strokeColor=inherit;overflow=hidden;fillColor=none;top=0;left=0;bottom=0;right=0;pointerEvents=1;fontSize=16;" parent="89" vertex="1">
                    <mxGeometry width="181" height="35" as="geometry">
                        <mxRectangle width="181" height="35" as="alternateBounds"/>
                    </mxGeometry>
                </mxCell>
                <mxCell id="155" style="shape=partialRectangle;html=1;whiteSpace=wrap;connectable=0;strokeColor=inherit;overflow=hidden;fillColor=none;top=0;left=0;bottom=0;right=0;pointerEvents=1;fontSize=16;" parent="89" vertex="1">
                    <mxGeometry x="181" width="69" height="35" as="geometry">
                        <mxRectangle width="69" height="35" as="alternateBounds"/>
                    </mxGeometry>
                </mxCell>
                <mxCell id="148" value="String" style="shape=partialRectangle;html=1;whiteSpace=wrap;connectable=0;strokeColor=inherit;overflow=hidden;fillColor=none;top=0;left=0;bottom=0;right=0;pointerEvents=1;fontSize=16;" parent="89" vertex="1">
                    <mxGeometry x="250" width="170" height="35" as="geometry">
                        <mxRectangle width="170" height="35" as="alternateBounds"/>
                    </mxGeometry>
                </mxCell>
                <mxCell id="90" value="10" style="shape=partialRectangle;html=1;whiteSpace=wrap;connectable=0;strokeColor=inherit;overflow=hidden;fillColor=none;top=0;left=0;bottom=0;right=0;pointerEvents=1;fontSize=16;" parent="89" vertex="1">
                    <mxGeometry x="420" width="80" height="35" as="geometry">
                        <mxRectangle width="80" height="35" as="alternateBounds"/>
                    </mxGeometry>
                </mxCell>
                <mxCell id="91" value="Unique, Not Null" style="shape=partialRectangle;html=1;whiteSpace=wrap;connectable=0;strokeColor=inherit;overflow=hidden;fillColor=none;top=0;left=0;bottom=0;right=0;pointerEvents=1;fontSize=16;" parent="89" vertex="1">
                    <mxGeometry x="500" width="275" height="35" as="geometry">
                        <mxRectangle width="275" height="35" as="alternateBounds"/>
                    </mxGeometry>
                </mxCell>
                <mxCell id="169" value="Hashed or encrypted Password" style="shape=partialRectangle;html=1;whiteSpace=wrap;connectable=0;strokeColor=inherit;overflow=hidden;fillColor=none;top=0;left=0;bottom=0;right=0;pointerEvents=1;fontSize=16;" parent="89" vertex="1">
                    <mxGeometry x="775" width="320" height="35" as="geometry">
                        <mxRectangle width="320" height="35" as="alternateBounds"/>
                    </mxGeometry>
                </mxCell>
                <mxCell id="176" value="**********" style="shape=partialRectangle;html=1;whiteSpace=wrap;connectable=0;strokeColor=inherit;overflow=hidden;fillColor=none;top=0;left=0;bottom=0;right=0;pointerEvents=1;fontSize=16;" parent="89" vertex="1">
                    <mxGeometry x="1095" width="120" height="35" as="geometry">
                        <mxRectangle width="120" height="35" as="alternateBounds"/>
                    </mxGeometry>
                </mxCell>
                <mxCell id="183" value="Check it meets expected Criteria" style="shape=partialRectangle;html=1;whiteSpace=wrap;connectable=0;strokeColor=inherit;overflow=hidden;fillColor=none;top=0;left=0;bottom=0;right=0;pointerEvents=1;fontSize=16;" parent="89" vertex="1">
                    <mxGeometry x="1215" width="540" height="35" as="geometry">
                        <mxRectangle width="540" height="35" as="alternateBounds"/>
                    </mxGeometry>
                </mxCell>
            </root>
        </mxGraphModel>
    </diagram>
</mxfile>